<svg xmlns="http://www.w3.org/2000/svg" viewBox="0 0 100 100" width="100" height="100">
  <g fill="#10B981">
    <title>Bill Tracker Logo - Paid Page</title>
    <!-- Main page shape -->
    <path d="M10,20 C10,14.477 14.477,10 20,10 L80,10 C85.523,10 90,14.477 90,20 L90,80 C90,85.523 85.523,90 80,90 L20,90 C14.477,90 10,85.523 10,80 L10,20 Z" />
    
    <!-- Peeled corner effect -->
    <path fill="#059669" d="M90,20 L70,10 L90,10 Z" />
    <path fill="rgba(255,255,255,0.3)" d="M70,10 L90,20 L70,20 Z" />

    <!-- Dollar Sign -->
    <path fill="white" d="M55.8,36.5c-2.3-1.4-5.1-2.1-8.3-2.1c-5.2,0-9.1,1.5-11.7,4.6c-2.6,3.1-3.9,7.4-3.9,12.8c0,4.6,1,8.3,3,11.2s4.8,5,8.2,6.2v8.3h5V79c5-1,8.9-3.2,11.6-6.6c2.7-3.4,4-7.8,4-13.1c0-5.8-1.5-10.4-4.5-13.8C62.4,38.1,59.4,37.1,55.8,36.5z M48.3,41.9c2.6,0,4.8,0.5,6.5,1.5c3.2,1.9,4.8,5.1,4.8,9.5c0,4.1-1.4,7.4-4.2,9.8c-1.8,1.5-4,2.3-6.5,2.3c-2.8,0-5.1-0.8-6.9-2.3c-2.9-2.5-4.3-5.9-4.3-10.1c0-4.3,1.6-7.8,4.7-10.3C44,42.5,46,41.9,48.3,41.9z" />
  </g>
</svg>
